<?xml version="1.0" encoding="UTF-8" standalone="no"?>
<svg width="844px" height="206px" viewBox="0 0 844 206" version="1.1" xmlns="http://www.w3.org/2000/svg" xmlns:xlink="http://www.w3.org/1999/xlink" xmlns:sketch="http://www.bohemiancoding.com/sketch/ns">
    <!-- Generator: Sketch 3.2.2 (9983) - http://www.bohemiancoding.com/sketch -->
    <title>lfp</title>
    <desc>Created with Sketch.</desc>
    <defs></defs>
    <g id="Page-1" stroke="none" stroke-width="1" fill="none" fill-rule="evenodd" sketch:type="MSPage">
        <g id="Slices" sketch:type="MSLayerGroup" transform="translate(-20.000000, -1870.000000)"></g>
        <rect id="Rectangle-56" fill="#FFFFFF" sketch:type="MSShapeGroup" x="-32" y="21" width="933" height="185"></rect>
        <text id="LFO-CHAIN" sketch:type="MSTextLayer" font-family="PT Sans" font-size="14" font-weight="bold" fill="#000000">
            <tspan x="372" y="10">LFO CHAIN</tspan>
        </text>
        <rect id="Rectangle-38" stroke="#488EE2" stroke-width="2" fill="#FFFFFF" sketch:type="MSShapeGroup" x="24.4995455" y="53.4846333" width="159.712329" height="122.46875" rx="4"></rect>
        <rect id="Rectangle-38" stroke="#488EE2" stroke-width="2" fill="#FFFFFF" sketch:type="MSShapeGroup" x="655.913322" y="53.4846333" width="164.778084" height="122.46875" rx="4"></rect>
        <text id="source" sketch:type="MSTextLayer" font-family="PT Sans" font-size="14" font-weight="bold" fill="#000000">
            <tspan x="127.83105" y="119.615702">source</tspan>
        </text>
        <rect id="Rectangle-38-copy" stroke="#488EE2" stroke-width="2" fill="#FFFFFF" sketch:type="MSShapeGroup" x="242" y="95" width="97.716895" height="37.6115702" rx="4"></rect>
        <text id="operator" sketch:type="MSTextLayer" font-family="PT Sans" font-size="12.5263158" font-weight="normal" fill="#000000">
            <tspan x="268" y="117">operator</tspan>
        </text>
        <rect id="Rectangle-38-copy-2" stroke="#488EE2" stroke-width="2" fill="#FFFFFF" sketch:type="MSShapeGroup" x="372" y="95" width="97.716895" height="37.6115702" rx="4"></rect>
        <text id="operator" sketch:type="MSTextLayer" font-family="PT Sans" font-size="12.5263158" font-weight="normal" fill="#000000">
            <tspan x="398" y="117">operator</tspan>
        </text>
        <rect id="Rectangle-38-copy-3" stroke="#488EE2" stroke-width="2" fill="#FFFFFF" sketch:type="MSShapeGroup" x="504" y="95" width="97.716895" height="37.6115702" rx="4"></rect>
        <text id="operator" sketch:type="MSTextLayer" font-family="PT Sans" font-size="12.5263158" font-weight="normal" fill="#000000">
            <tspan x="530" y="117">operator</tspan>
        </text>
        <text id="sink" sketch:type="MSTextLayer" font-family="PT Sans" font-size="14" font-weight="bold" fill="#000000">
            <tspan x="681.187215" y="117.115702">sink</tspan>
        </text>
        <text id="LFO-data" sketch:type="MSTextLayer" font-family="PT Sans" font-size="9.42857143" font-weight="bold" fill="#F1961C">
            <tspan x="195.16895" y="70">LFO data</tspan>
        </text>
        <text id="LFO-data" sketch:type="MSTextLayer" font-family="PT Sans" font-size="9.42857143" font-weight="bold" fill="#F1961C">
            <tspan x="333.981735" y="70">LFO data</tspan>
        </text>
        <text id="LFO-data" sketch:type="MSTextLayer" font-family="PT Sans" font-size="9.42857143" font-weight="bold" fill="#F1961C">
            <tspan x="468.228311" y="70">LFO data</tspan>
        </text>
        <text id="LFO-data" sketch:type="MSTextLayer" font-family="PT Sans" font-size="9.42857143" font-weight="bold" fill="#F1961C">
            <tspan x="603.388128" y="70">LFO data</tspan>
        </text>
        <path d="M196.538813,114.977273 L235.828513,114.977273" id="Line" stroke="#F6A623" stroke-width="1.5" stroke-linecap="square" stroke-dasharray="3" sketch:type="MSShapeGroup"></path>
        <path id="Line-decoration-1" d="M235.538813,114.977273 C231.758813,113.927273 228.518813,113.027273 224.738813,111.977273 C224.738813,114.077273 224.738813,115.877273 224.738813,117.977273 C228.518813,116.927273 231.758813,116.027273 235.538813,114.977273 C235.538813,114.977273 235.538813,114.977273 235.538813,114.977273 Z" stroke="#F6A623" stroke-width="1.5" stroke-linecap="square" stroke-dasharray="3"></path>
        <path d="M345.39726,114.059917 L366.29466,114.059917" id="Line" stroke="#F6A623" stroke-width="1.5" stroke-linecap="square" stroke-dasharray="3" sketch:type="MSShapeGroup"></path>
        <path id="Line-decoration-1" d="M365.39726,114.059917 C361.61726,113.009917 358.37726,112.109917 354.59726,111.059917 C354.59726,113.159917 354.59726,114.959917 354.59726,117.059917 C358.37726,116.009917 361.61726,115.109917 365.39726,114.059917 C365.39726,114.059917 365.39726,114.059917 365.39726,114.059917 Z" stroke="#F6A623" stroke-width="1.5" stroke-linecap="square" stroke-dasharray="3"></path>
        <path d="M476.90411,114.059917 L497.80151,114.059917" id="Line-copy" stroke="#F6A623" stroke-width="1.5" stroke-linecap="square" stroke-dasharray="3" sketch:type="MSShapeGroup"></path>
        <path id="Line-copy-decoration-1" d="M496.90411,114.059917 C493.12411,113.009917 489.88411,112.109917 486.10411,111.059917 C486.10411,113.159917 486.10411,114.959917 486.10411,117.059917 C489.88411,116.009917 493.12411,115.109917 496.90411,114.059917 C496.90411,114.059917 496.90411,114.059917 496.90411,114.059917 Z" stroke="#F6A623" stroke-width="1.5" stroke-linecap="square" stroke-dasharray="3"></path>
        <path d="M607.497717,114.059917 L644.027397,114.059917" id="Line-copy-2" stroke="#F6A623" stroke-width="1.5" stroke-linecap="square" stroke-dasharray="3" sketch:type="MSShapeGroup"></path>
        <path id="Line-copy-2-decoration-1" d="M643.497717,114.059917 C639.717717,113.009917 636.477717,112.109917 632.697717,111.059917 C632.697717,113.159917 632.697717,114.959917 632.697717,117.059917 C636.477717,116.009917 639.717717,115.109917 643.497717,114.059917 C643.497717,114.059917 643.497717,114.059917 643.497717,114.059917 Z" stroke="#F6A623" stroke-width="1.5" stroke-linecap="square" stroke-dasharray="3"></path>
        <g id="Group" sketch:type="MSLayerGroup" transform="translate(94.771689, 113.371901) rotate(-180.000000) translate(-94.771689, -113.371901) translate(74.223744, 77.595041)" stroke="#F6A623" stroke-width="1.5" stroke-linecap="square" stroke-dasharray="3">
            <path d="M0.456621005,32.7954545 L36.9863014,32.7954545" id="Line-copy-4" sketch:type="MSShapeGroup"></path>
            <path id="Line-copy-4-decoration-1" d="M36.456621,32.7954545 C32.676621,31.7454545 29.436621,30.8454545 25.656621,29.7954545 C25.656621,31.8954545 25.656621,33.6954545 25.656621,35.7954545 C29.436621,34.7454545 32.676621,33.8454545 36.456621,32.7954545 C36.456621,32.7954545 36.456621,32.7954545 36.456621,32.7954545 Z"></path>
            <path d="M0.456621005,32.7954545 L40.5393836,0.0609181302" id="Line-copy-5" sketch:type="MSShapeGroup"></path>
            <path id="Line-copy-5-decoration-1" d="M39.9576242,0.536025704 C36.365738,2.11376272 33.2869785,3.46610873 29.6950924,5.04384574 C31.0234218,6.67035764 32.1619899,8.06451069 33.4903193,9.69102259 C35.753876,6.48677368 37.6940675,3.74027461 39.9576242,0.536025704 C39.9576242,0.536025704 39.9576242,0.536025704 39.9576242,0.536025704 Z"></path>
            <path d="M0.456621005,32.7954545 L41.2956621,71.7042226" id="Line-copy-5" sketch:type="MSShapeGroup"></path>
            <path id="Line-copy-5-decoration-1" d="M41.0011834,71.4236626 C38.9887044,68.056048 37.2637223,65.1695212 35.2512433,61.8019066 C33.8026854,63.3223277 32.5610645,64.6255458 31.1125067,66.1459669 C34.5735435,67.9931604 37.5401466,69.5764691 41.0011834,71.4236626 C41.0011834,71.4236626 41.0011834,71.4236626 41.0011834,71.4236626 Z"></path>
            <path d="M0.456621005,32.7954545 L40.5393836,0.0609181302" id="Line-copy-6" sketch:type="MSShapeGroup"></path>
            <path id="Line-copy-6-decoration-1" d="M39.9576242,0.536025704 C36.365738,2.11376272 33.2869785,3.46610873 29.6950924,5.04384574 C31.0234218,6.67035764 32.1619899,8.06451069 33.4903193,9.69102259 C35.753876,6.48677368 37.6940675,3.74027461 39.9576242,0.536025704 C39.9576242,0.536025704 39.9576242,0.536025704 39.9576242,0.536025704 Z"></path>
        </g>
        <path d="M212.063927,80.8057851 L212.063927,114.760329" id="Line" stroke="#F5A623" stroke-linecap="square" stroke-dasharray="2" sketch:type="MSShapeGroup"></path>
        <path d="M352.703196,79.8884298 L352.703196,113.842974" id="Line-copy" stroke="#F5A623" stroke-linecap="square" stroke-dasharray="2" sketch:type="MSShapeGroup"></path>
        <path d="M484.210046,79.8884298 L484.210046,113.842974" id="Line-copy-2" stroke="#F5A623" stroke-linecap="square" stroke-dasharray="2" sketch:type="MSShapeGroup"></path>
        <path d="M623.936073,79.8884298 L623.936073,113.842974" id="Line-copy-3" stroke="#F5A623" stroke-linecap="square" stroke-dasharray="2" sketch:type="MSShapeGroup"></path>
        <g id="Group" sketch:type="MSLayerGroup" transform="translate(729.000000, 67.000000)">
            <path d="M0.876712329,47.9772727 L37.4063927,47.9772727" id="Line-copy-3" stroke="#F6A623" stroke-width="1.5" stroke-linecap="square" stroke-dasharray="3" sketch:type="MSShapeGroup"></path>
            <path id="Line-copy-3-decoration-1" d="M36.8767123,47.9772727 C33.0967123,46.9272727 29.8567123,46.0272727 26.0767123,44.9772727 C26.0767123,47.0772727 26.0767123,48.8772727 26.0767123,50.9772727 C29.8567123,49.9272727 33.0967123,49.0272727 36.8767123,47.9772727 C36.8767123,47.9772727 36.8767123,47.9772727 36.8767123,47.9772727 Z" stroke="#F6A623" stroke-width="1.5" stroke-linecap="square" stroke-dasharray="3"></path>
            <path d="M0.876712329,47.9772727 L41.7157534,86.8860408" id="Line-copy-4" stroke="#F6A623" stroke-width="1.5" stroke-linecap="square" stroke-dasharray="3" sketch:type="MSShapeGroup"></path>
            <path id="Line-copy-4-decoration-1" d="M41.4212748,86.6054808 C39.4087957,83.2378662 37.6838136,80.3513394 35.6713346,76.9837248 C34.2227768,78.5041459 32.9811558,79.807364 31.532598,81.3277851 C34.9936349,83.1749786 37.9602379,84.7582873 41.4212748,86.6054808 C41.4212748,86.6054808 41.4212748,86.6054808 41.4212748,86.6054808 Z" stroke="#F6A623" stroke-width="1.5" stroke-linecap="square" stroke-dasharray="3"></path>
            <path d="M0.876712329,47.9772727 L40.9594749,15.2427363" id="Line-copy-5" stroke="#F6A623" stroke-width="1.5" stroke-linecap="square" stroke-dasharray="3" sketch:type="MSShapeGroup"></path>
            <path id="Line-copy-5-decoration-1" d="M40.3777155,15.7178439 C36.7858294,17.2955809 33.7070698,18.6479269 30.1151837,20.2256639 C31.4435131,21.8521758 32.5820812,23.2463289 33.9104106,24.8728408 C36.1739673,21.6685919 38.1141588,18.9220928 40.3777155,15.7178439 C40.3777155,15.7178439 40.3777155,15.7178439 40.3777155,15.7178439 Z" stroke="#F6A623" stroke-width="1.5" stroke-linecap="square" stroke-dasharray="3"></path>
            <text id="Text" sketch:type="MSTextLayer" font-family="FontAwesome" font-size="19.7241379" font-weight="normal" fill="#717171">
                <tspan x="46.0821918" y="56.0330579"></tspan>
            </text>
            <text id="Text" sketch:type="MSTextLayer" font-family="FontAwesome" font-size="19.7241379" font-weight="normal" fill="#717171">
                <tspan x="46.0821918" y="96.3966942"></tspan>
            </text>
            <text id="Text" sketch:type="MSTextLayer" font-family="FontAwesome" font-size="19.7241379" font-weight="normal" fill="#717171">
                <tspan x="46.0821918" y="16.5867769"></tspan>
            </text>
        </g>
        <text id="Text" sketch:type="MSTextLayer" font-family="FontAwesome" font-size="19.7241379" font-weight="normal" fill="#717171">
            <tspan x="45" y="163.396694"></tspan>
        </text>
        <text id="Text" sketch:type="MSTextLayer" font-family="FontAwesome" font-size="19.7241379" font-weight="normal" fill="#717171">
            <tspan x="50.4794521" y="123.033058"></tspan>
        </text>
        <text id="Text" sketch:type="MSTextLayer" font-family="FontAwesome" font-size="19.7241379" font-weight="normal" fill="#717171">
            <tspan x="45" y="83.5867769"></tspan>
        </text>
    </g>
</svg>